<svg viewBox="0 0 813 200" fill="none"
  xmlns="http://www.w3.org/2000/svg">
  <rect x="20" y="20" width="160" height="160" rx="6" stroke="black" stroke-width="12"/>
  <line x1="60.8944" y1="52.861" x2="135.835" y2="150.395" stroke="black" stroke-width="30"/>
  <path d="M265.654 146.772C285.753 146.772 301.174 136.865 301.174 119.232C301.174 103.446 288.352 96.8972 278.649 93.7065L267.386 89.6761C261.322 87.8289 259.589 85.142 259.589 82.2872C259.589 79.2644 262.188 76.2415 267.386 76.2415C271.025 76.2415 275.53 77.7531 277.783 84.47L298.748 79.4322C295.629 65.326 283.327 56.0899 266.347 56.0899C248.673 56.0899 233.599 65.662 233.599 81.9513C233.599 92.8668 240.01 102.271 254.911 107.477L267.04 111.843C272.931 113.69 274.664 116.377 274.664 119.232C274.664 124.102 270.159 126.453 265.307 126.453C256.817 126.453 253.698 120.575 252.312 116.377L231 121.919C233.772 138.544 247.461 146.772 265.654 146.772Z" fill="black"/>
  <path d="M313.188 177H340.044V135.185H340.564C341.95 138.376 351.307 146.772 367.247 146.772C387.693 146.772 410.218 131.827 410.218 101.431C410.218 71.0358 387.693 56.0899 367.247 56.0899C351.307 56.0899 341.95 64.4863 340.564 67.6769H340.044V57.7692H313.188V177ZM339.351 101.431C339.351 87.157 349.92 79.2644 361.703 79.2644C373.138 79.2644 383.708 87.3251 383.708 101.431C383.708 115.537 373.138 123.598 361.703 123.598C349.92 123.598 339.351 115.705 339.351 101.431Z" fill="black"/>
  <path d="M465.301 146.772C481.762 146.772 494.584 140.223 502.034 131.155L489.905 118.896C483.321 123.766 476.217 125.613 468.247 125.613C456.291 125.613 447.281 120.911 443.643 111.507H507.752C513.47 71.5396 486.613 56.0899 463.742 56.0899C440.524 56.0899 417.826 72.0433 417.826 101.599C417.826 130.315 440.35 146.772 465.301 146.772ZM443.123 92.8668C446.068 82.455 455.078 77.9209 464.088 77.9209C473.098 77.9209 482.282 82.791 484.187 92.8668H443.123Z" fill="black"/>
  <path d="M564.3 146.772C580.241 146.772 594.275 139.383 603.112 125.277L583.706 113.018C579.374 118.728 572.963 123.262 564.3 123.262C552.691 123.262 542.815 114.866 542.815 101.263C542.815 87.9967 552.691 79.6003 564.3 79.6003C572.963 79.6003 579.374 84.1345 583.706 89.8439L603.112 77.5849C594.275 63.1432 580.241 56.0899 564.3 56.0899C540.215 56.0899 516.305 71.7073 516.305 101.263C516.305 131.155 540.215 146.772 564.3 146.772Z" fill="black"/>
  <path d="M620.944 53.7389V57.7692H608.99V78.4246H620.944V145.093H647.801V78.4246H670.329V57.7692H647.801V56.4258C647.801 49.0368 651.615 43.9989 660.625 43.9989C661.315 43.9989 665.475 43.6631 670.329 45.6782V25.3586C664.784 22.1679 657.68 22 653.346 22C640.872 22 620.944 26.1982 620.944 53.7389Z" fill="black"/>
  <path d="M697.166 177H723.504L737.367 145.093L775.139 57.7692H747.762L724.889 114.53L702.02 57.7692H674.643L712.07 144.086L697.166 177Z" fill="black"/>
</svg>
