<svg xmlns="http://www.w3.org/2000/svg" xmlns:xlink="http://www.w3.org/1999/xlink"
width="200" height="54.82602442791089" viewBox="0 0 200 54.82602442791089" class="css-1j8o68f"><defs id="SvgjsDefs1557"></defs><g id="SvgjsG1558" featurekey="nameFeature-0" fill="#1f1f1f"><path d="M20.92 33.08 c0 1.2 -0.24 2.28 -0.84 3.36 c-2.36 4.28 -7.88 4.36 -9 4.36 c-3.08 0 -6.24 -0.88 -8.84 -2.52 c-0.8 -0.48 -1.52 -1.08 -2.28 -1.64 l4.64 -4.2 c0.4 0.36 0.76 0.68 1.16 1 c0.68 0.48 2.72 1.76 5.24 1.76 c0.2 0 0.84 0 1.36 -0.24 c0.6 -0.28 0.8 -0.8 0.8 -1.08 c0 -0.24 -0.12 -0.44 -0.16 -0.48 c-0.52 -0.8 -1.44 -0.72 -3 -1 c-0.48 -0.08 -2.44 -0.48 -4.08 -1.04 c-1.92 -0.64 -3.4 -1.4 -4.32 -3.36 c-0.36 -0.8 -0.56 -1.6 -0.56 -2.48 c0 -1.8 0.84 -3.16 1.2 -3.68 c1.2 -1.68 3.56 -3.4 8.2 -3.4 c2.48 0 5.64 0.52 7.88 1.68 c0.76 0.4 1.32 0.8 2 1.32 l-4.44 4.04 c-0.6 -0.4 -2.8 -2 -5.32 -2 c-0.16 0 -0.72 0 -1.16 0.2 c-0.48 0.24 -0.6 0.68 -0.6 0.88 c0 0.52 0.44 0.76 0.56 0.8 c0.36 0.2 1.16 0.36 2.16 0.6 c3.04 0.76 4.8 1.04 6.12 1.72 c1.04 0.52 3.28 2.12 3.28 5.4 z M45.92 29.759999999999998 c0 5.8 -2.68 10.76 -9.12 10.76 c-0.6 0 -2.76 0 -4.48 -1.16 c-0.28 -0.2 -0.44 -0.36 -0.88 -0.76 l0 8.92 l-8.08 0 l0 -28.24 l8.04 0 l0 1.6 c0.4 -0.48 0.56 -0.64 0.8 -0.8 c0.76 -0.6 2.32 -1.36 4.68 -1.36 c6.48 0 9.04 5.28 9.04 11.04 z M37.8 29.84 c0 -1.28 -0.08 -2.92 -0.88 -4 c-0.72 -0.96 -1.8 -1.12 -2.2 -1.12 c-0.32 0 -0.96 0.04 -1.6 0.4 c-1.68 0.92 -1.76 3 -1.76 4.64 c0 1.6 0.12 3.72 1.72 4.6 c0.64 0.36 1.16 0.36 1.44 0.36 c0.36 0 0.92 -0.04 1.6 -0.44 c1.48 -0.92 1.68 -2.92 1.68 -4.44 z M70.2 31.119999999999997 l-14.44 0 s0 0.96 0.2 1.6 c0.28 0.8 1.08 2.32 3.28 2.28 c1.28 0 1.96 -0.44 2.36 -0.8 c0.84 -0.68 1.24 -1.6 1.4 -1.88 l6.76 2.84 c-0.2 0.32 -0.44 0.76 -1 1.4 c-1.44 1.68 -3.08 2.6 -3.8 2.96 c-1 0.48 -3.16 1.32 -6.12 1.32 c-1.72 0 -3.36 -0.24 -4.92 -0.88 c-4.28 -1.76 -6.56 -5.92 -6.56 -10.44 c0 -4.28 1.96 -6.92 3.16 -8.08 c2.96 -2.84 7.08 -3.04 8.24 -3.04 c1.4 0 5.64 0.2 8.64 3.44 c1 1.08 1.76 2.44 2.2 3.84 c0.56 1.8 0.6 3.56 0.6 5.44 z M61.84 26.759999999999998 c-0.04 -0.24 -0.04 -0.64 -0.2 -1.16 c-0.56 -1.72 -2.08 -1.96 -2.72 -1.96 c-0.64 0.04 -1.04 0.2 -1.28 0.32 c-1.52 0.68 -1.72 2.36 -1.8 2.8 l6 0 z M93.28 34.480000000000004 c-0.56 1.12 -0.96 1.76 -1.32 2.2 c-1.24 1.6 -4.2 4.12 -9.36 4.12 c-2.36 0 -3.8 -0.48 -4.72 -0.88 c-5.92 -2.48 -6.32 -8.52 -6.32 -10.4 c0 -0.68 0.08 -2.36 0.68 -4.16 c2.28 -6.72 8.8 -7 10.88 -7 c3.64 0 5.8 1.12 7.08 2 c0.32 0.24 1.24 0.92 2 1.84 c0.44 0.56 0.68 0.96 1.04 1.56 l-6.24 3.52 c-0.16 -0.52 -0.32 -0.92 -0.4 -1.08 c-0.28 -0.6 -1.16 -2.04 -3.16 -2.04 c-0.88 0 -1.48 0.32 -1.76 0.52 c-2 1.36 -1.96 4.76 -1.96 5.08 c0 0.24 -0.04 2.36 0.96 3.6 c0.16 0.24 0.48 0.56 1.16 0.84 c0.24 0.08 0.76 0.32 1.48 0.32 c2.68 -0.04 3.48 -3.04 3.64 -3.52 z M108.92 24.240000000000002 l-3.72 0 l0 15.76 l-8.24 0 l0 -15.76 l-3.08 0 l0 -4.48 l3.08 0 l0 -2.04 c0 -0.2 0.04 -1.72 0.4 -2.76 c0.72 -2 2.84 -3.68 7.24 -3.68 c2.04 0 3.56 0.4 4.32 0.56 l0 5.64 c-0.76 -0.28 -1.04 -0.28 -1.52 -0.28 c-2.36 0 -2.2 1.76 -2.2 2.56 l3.72 0 l0 4.48 z M132.16 19.28 l-7.56 21.92 c-0.64 1.84 -1.36 3.72 -2.92 5 c-1.64 1.32 -3.24 1.28 -5.28 1.28 c-0.68 0 -1.4 0.04 -2.08 -0.04 l-2.28 -0.24 l0 -5.88 c0.8 0.04 1.56 0.12 2.36 0.12 c1.16 0 1.72 -0.24 1.72 -1 c0 -0.32 -0.32 -1.2 -0.64 -2.12 l-6.56 -19.04 l8.6 0 l2.96 13.52 s3.08 -13.28 3.12 -13.52 l8.56 0 z"></path></g></svg>
