<svg xmlns:dc="http://purl.org/dc/elements/1.1/" xmlns:cc="http://creativecommons.org/ns#" xmlns:rdf="http://www.w3.org/1999/02/22-rdf-syntax-ns#" xmlns:svg="http://www.w3.org/2000/svg" xmlns="http://www.w3.org/2000/svg" xmlns:xlink="http://www.w3.org/1999/xlink" id="svg145929" viewBox="0 0 414 148" version="1.1">
    <g id="logo-center" transform="translate(-170 0)">
        <path  d="m 420.38506,2.952 c 5.112,0 9.864,-1.44 13.392,-4.176 1.944,-1.512 3.456,-3.312 4.536,-5.4 1.152,-2.16 1.728,-4.68 1.728,-7.344 0,-4.896 -1.728,-8.64 -5.184,-11.52 -2.952,-2.376 -6.84,-3.888 -10.944,-5.544 -0.432,-0.144 -0.864,-0.36 -1.368,-0.504 v 0 c -2.88,-1.152 -5.616,-2.16 -7.344,-3.384 -1.224,-0.864 -2.016,-1.728 -1.944,-3.384 0,-3.672 3.6,-5.04 6.624,-5.04 3.24,0 7.128,1.728 10.656,4.608 l 2.016,1.656 6.912,-8.928 -1.872,-1.584 c -5.328,-4.248 -11.448,-6.552 -17.712,-6.552 -4.896,0 -9.432,1.656 -12.816,4.536 -3.456,3.024 -5.328,7.128 -5.328,11.52 0,2.592 0.504,4.896 1.584,6.912 0.936,1.872 2.304,3.456 4.104,4.968 3.168,2.448 7.128,4.032 11.16,5.544 0.288,0.144 0.576,0.216 0.792,0.288 2.952,1.152 5.544,2.088 7.128,3.312 1.368,1.008 1.944,2.088 1.944,3.816 0,1.656 -0.648,2.88 -1.872,3.816 -1.44,1.008 -3.6,1.512 -6.12,1.512 -2.16,0 -4.464,-0.504 -6.48,-1.44 -2.232,-1.08 -4.176,-2.592 -5.688,-4.464 l -1.944,-2.448 -7.416,8.928 1.512,1.584 c 5.256,5.616 12.312,8.712 19.944,8.712 z" stroke-width="0" stroke-linejoin="miter" stroke-miterlimit="2" fill="#535354" stroke="#535354" transform="translate(0 0) translate(185.75 19.33952) scale(1.67) translate(-398.92906 54.144)"/>
        <path d="m 483.17469,-25.416 c -1.08,-2.448 -2.52,-4.608 -4.392,-6.552 -1.944,-1.872 -4.104,-3.312 -6.552,-4.392 -2.52,-1.08 -5.184,-1.584 -7.992,-1.584 -2.736,0 -5.472,0.504 -7.992,1.584 -2.448,1.08 -4.608,2.52 -6.552,4.392 -1.872,1.872 -3.312,4.104 -4.392,6.552 -1.008,2.52 -1.584,5.184 -1.584,7.992 v 30.6 l 10.8,3.6 V 0.648 c 0.576,0.288 1.152,0.576 1.728,0.792 2.52,1.08 5.256,1.656 7.992,1.656 2.736,0 5.472,-0.576 7.992,-1.656 2.448,-1.008 4.608,-2.448 6.552,-4.392 1.872,-1.872 3.312,-4.032 4.392,-6.48 1.08,-2.52 1.584,-5.256 1.584,-7.992 0,-2.808 -0.504,-5.472 -1.584,-7.992 z m -18.936,17.712 c -5.328,0 -9.72,-4.392 -9.72,-9.72 0,-5.328 4.392,-9.72 9.72,-9.72 5.328,0 9.72,4.392 9.72,9.72 0,5.328 -4.392,9.72 -9.72,9.72 z" stroke-width="0" stroke-linejoin="miter" stroke-miterlimit="2" fill="#535354" stroke="#535354" transform="translate(0 0) translate(260.54868209999995 46.393519999999995) scale(1.67) translate(-443.71869 37.944)"/>
        <path d="m 505.22694,2.808 c 2.808,0 5.544,-0.576 8.136,-1.728 2.52,-1.08 4.752,-2.664 6.624,-4.608 l -7.632,-7.2 c -1.872,2.016 -4.392,3.096 -7.128,3.096 -3.528,0 -6.624,-1.872 -8.352,-4.608 h 28.584 v -5.256 c 0,-5.4 -2.088,-10.512 -5.904,-14.328 -3.816,-3.816 -8.928,-5.976 -14.328,-5.976 -5.472,0 -10.512,2.16 -14.4,5.976 -3.816,3.816 -5.904,8.928 -5.904,14.328 0,5.4 2.088,10.512 5.904,14.328 3.888,3.816 8.928,5.976 14.4,5.976 z m -8.352,-25.488 c 1.728,-2.808 4.824,-4.68 8.352,-4.68 3.456,0 6.552,1.872 8.352,4.68 z" stroke-width="0" stroke-linejoin="miter" stroke-miterlimit="2" fill="#535354" stroke="#535354" transform="translate(0 0) translate(335.3597795999999 46.63400000000001) scale(1.67) translate(-484.92294 37.8)"/>
        <path d="m 546.31981,3.096 c 6.696,0 13.032,-3.312 16.92,-8.928 l -8.928,-6.12 c -1.8,2.664 -4.824,4.248 -7.992,4.248 -5.4,0 -9.72,-4.392 -9.72,-9.72 0,-5.4 4.32,-9.72 9.72,-9.72 3.096,0 6.12,1.512 7.92,4.104 l 8.856,-6.192 c -1.872,-2.664 -4.392,-4.824 -7.2,-6.336 -2.952,-1.584 -6.264,-2.376 -9.576,-2.376 -2.808,0 -5.472,0.504 -7.992,1.584 -2.448,1.08 -4.68,2.52 -6.552,4.392 -1.872,1.944 -3.384,4.104 -4.392,6.552 -1.08,2.52 -1.584,5.256 -1.584,7.992 0,2.736 0.504,5.472 1.584,7.992 1.008,2.448 2.52,4.608 4.392,6.552 1.872,1.872 4.104,3.312 6.552,4.392 2.52,1.008 5.184,1.584 7.992,1.584 z" stroke-width="0" stroke-linejoin="miter" stroke-miterlimit="2" fill="#535354" stroke="#535354" transform="translate(0 0) translate(407.62415249999987 46.393519999999995) scale(1.67) translate(-525.79981 37.944)"/>
        <path d="m 577.02669,-37.44 v -0.072 c 0,-6.264 5.112,-11.448 11.448,-11.448 v -10.8 c -3.024,0 -5.976,0.648 -8.712,1.8 -2.664,1.08 -5.04,2.664 -7.056,4.752 -2.016,2.016 -3.672,4.392 -4.752,7.056 -1.152,2.736 -1.728,5.688 -1.728,8.64 V 2.52 h 10.8 v -29.88 h 11.448 v -10.08 z" stroke-width="0" stroke-linejoin="miter" stroke-miterlimit="2" fill="#535354" stroke="#535354" transform="translate(0 0) translate(475.1370420999997 9.960799999999999) scale(1.67) translate(-566.22669 59.76)"/>
        <path  d="m 593.36281,16.776 h 11.448 l 21.888,-54.36 h -11.52 l -9.072,22.752 -9.648,-22.752 h -11.88 l 16.056,36.288 z" stroke-width="0" stroke-linejoin="miter" stroke-miterlimit="2" fill="#535354" stroke="#535354" transform="translate(0 0) translate(515.78508249999965 46.994719999999994) scale(1.67) translate(-584.57881 37.584)"/>

  </g>
</svg>
